<svg xmlns="http://www.w3.org/2000/svg" width="212.65" height="35" viewBox="0 0 212.65 35"><rect class="svg__rect" x="0" y="0" width="118.9" height="35" fill="#31C4F3"/><rect class="svg__rect" x="116.9" y="0" width="95.75" height="35" fill="#389AD5"/><path class="svg__text" d="M15.69 22L14.22 22L14.22 13.47L16.14 13.47L18.60 20.01L21.06 13.47L22.97 13.47L22.97 22L21.49 22L21.49 19.19L21.64 15.43L19.12 22L18.06 22L15.55 15.43L15.69 19.19L15.69 22ZM28.49 22L26.95 22L30.17 13.47L31.50 13.47L34.73 22L33.18 22L32.49 20.01L29.18 20.01L28.49 22ZM30.83 15.28L29.60 18.82L32.07 18.82L30.83 15.28ZM40.37 14.66L37.73 14.66L37.73 13.47L44.50 13.47L44.50 14.66L41.84 14.66L41.84 22L40.37 22L40.37 14.66ZM49.94 14.66L47.30 14.66L47.30 13.47L54.07 13.47L54.07 14.66L51.41 14.66L51.41 22L49.94 22L49.94 14.66ZM60.45 18.95L57.37 18.95L57.37 17.80L60.45 17.80L60.45 18.95ZM64.48 18.19L64.48 18.19L64.48 17.39Q64.48 16.19 64.91 15.27Q65.33 14.35 66.13 13.85Q66.93 13.35 67.98 13.35L67.98 13.35Q69.39 13.35 70.26 14.12Q71.12 14.89 71.26 16.29L71.26 16.29L69.78 16.29Q69.68 15.37 69.25 14.96Q68.81 14.55 67.98 14.55L67.98 14.55Q67.02 14.55 66.50 15.26Q65.98 15.96 65.97 17.33L65.97 17.33L65.97 18.09Q65.97 19.47 66.46 20.20Q66.96 20.92 67.91 20.92L67.91 20.92Q68.79 20.92 69.22 20.53Q69.66 20.14 69.78 19.22L69.78 19.22L71.26 19.22Q71.13 20.59 70.25 21.35Q69.37 22.12 67.91 22.12L67.91 22.12Q66.89 22.12 66.12 21.63Q65.34 21.15 64.92 20.26Q64.50 19.37 64.48 18.19ZM75.30 18.00L75.30 18.00L75.30 17.52Q75.30 16.28 75.74 15.32Q76.19 14.37 76.99 13.86Q77.80 13.35 78.84 13.35Q79.88 13.35 80.69 13.85Q81.49 14.35 81.93 15.29Q82.37 16.23 82.38 17.48L82.38 17.48L82.38 17.96Q82.38 19.21 81.95 20.16Q81.51 21.10 80.71 21.61Q79.90 22.12 78.85 22.12L78.85 22.12Q77.81 22.12 77.00 21.61Q76.19 21.10 75.75 20.17Q75.31 19.23 75.30 18.00ZM76.78 17.46L76.78 17.96Q76.78 19.36 77.33 20.13Q77.88 20.90 78.85 20.90L78.85 20.90Q79.84 20.90 80.37 20.15Q80.90 19.40 80.90 17.96L80.90 17.96L80.90 17.51Q80.90 16.09 80.36 15.34Q79.82 14.58 78.84 14.58L78.84 14.58Q77.88 14.58 77.34 15.33Q76.80 16.09 76.78 17.46L76.78 17.46ZM88.33 22L86.84 22L86.84 13.47L88.33 13.47L92.14 19.54L92.14 13.47L93.61 13.47L93.61 22L92.13 22L88.33 15.95L88.33 22ZM99.83 22L98.35 22L98.35 13.47L99.83 13.47L103.65 19.54L103.65 13.47L105.12 13.47L105.12 22L103.64 22L99.83 15.95L99.83 22Z" fill="#FFFFFF"/><path class="svg__text" d="M133.47 22L131.09 22L131.09 13.60L134.93 13.60Q136.07 13.60 136.91 13.98Q137.75 14.35 138.21 15.06Q138.66 15.76 138.66 16.71L138.66 16.71Q138.66 17.62 138.24 18.30Q137.81 18.98 137.02 19.36L137.02 19.36L138.83 22L136.29 22L134.76 19.77L133.47 19.77L133.47 22ZM133.47 15.47L133.47 17.93L134.79 17.93Q135.52 17.93 135.89 17.61Q136.26 17.29 136.26 16.71L136.26 16.71Q136.26 16.12 135.89 15.79Q135.52 15.47 134.79 15.47L134.79 15.47L133.47 15.47ZM150.20 22L143.45 22L143.45 13.60L150.04 13.60L150.04 15.44L145.81 15.44L145.81 16.85L149.54 16.85L149.54 18.63L145.81 18.63L145.81 20.17L150.20 20.17L150.20 22ZM154.41 21.24L154.41 21.24L155.19 19.49Q155.76 19.86 156.50 20.09Q157.24 20.32 157.96 20.32L157.96 20.32Q159.33 20.32 159.34 19.64L159.34 19.64Q159.34 19.28 158.95 19.11Q158.56 18.93 157.69 18.74L157.69 18.74Q156.74 18.53 156.10 18.30Q155.47 18.06 155.01 17.55Q154.56 17.03 154.56 16.16L154.56 16.16Q154.56 15.39 154.98 14.77Q155.40 14.15 156.23 13.79Q157.07 13.43 158.28 13.43L158.28 13.43Q159.10 13.43 159.91 13.62Q160.71 13.80 161.33 14.17L161.33 14.17L160.60 15.93Q159.39 15.28 158.26 15.28L158.26 15.28Q157.55 15.28 157.23 15.49Q156.91 15.70 156.91 16.04L156.91 16.04Q156.91 16.37 157.29 16.54Q157.68 16.71 158.53 16.89L158.53 16.89Q159.49 17.10 160.12 17.33Q160.75 17.56 161.21 18.07Q161.67 18.58 161.67 19.46L161.67 19.46Q161.67 20.21 161.25 20.83Q160.84 21.44 160.00 21.80Q159.15 22.17 157.95 22.17L157.95 22.17Q156.93 22.17 155.97 21.92Q155.01 21.67 154.41 21.24ZM166.18 18.26L166.18 18.26L166.18 13.60L168.56 13.60L168.56 18.19Q168.56 20.20 170.15 20.20L170.15 20.20Q171.73 20.20 171.73 18.19L171.73 18.19L171.73 13.60L174.08 13.60L174.08 18.26Q174.08 20.13 173.04 21.15Q172.00 22.17 170.13 22.17L170.13 22.17Q168.25 22.17 167.22 21.15Q166.18 20.13 166.18 18.26ZM181.36 22L179.16 22L179.16 13.60L181.12 13.60L184.07 18.45L186.96 13.60L188.91 13.60L188.93 22L186.75 22L186.73 17.55L184.57 21.17L183.51 21.17L181.36 17.67L181.36 22ZM200.84 22L194.09 22L194.09 13.60L200.69 13.60L200.69 15.44L196.45 15.44L196.45 16.85L200.18 16.85L200.18 18.63L196.45 18.63L196.45 20.17L200.84 20.17L200.84 22Z" fill="#FFFFFF" x="129.9"/></svg>