<svg xmlns="http://www.w3.org/2000/svg" width="222.15" height="35" viewBox="0 0 222.15 35"><rect class="svg__rect" x="0" y="0" width="118.9" height="35" fill="#31C4F3"/><rect class="svg__rect" x="116.9" y="0" width="105.25" height="35" fill="#389AD5"/><path class="svg__text" d="M15.69 22L14.22 22L14.22 13.47L16.14 13.47L18.60 20.01L21.06 13.47L22.97 13.47L22.97 22L21.49 22L21.49 19.19L21.64 15.43L19.12 22L18.06 22L15.55 15.43L15.69 19.19L15.69 22ZM28.49 22L26.95 22L30.17 13.47L31.50 13.47L34.73 22L33.18 22L32.49 20.01L29.18 20.01L28.49 22ZM30.83 15.28L29.60 18.82L32.07 18.82L30.83 15.28ZM40.37 14.66L37.73 14.66L37.73 13.47L44.50 13.47L44.50 14.66L41.84 14.66L41.84 22L40.37 22L40.37 14.66ZM49.94 14.66L47.30 14.66L47.30 13.47L54.07 13.47L54.07 14.66L51.41 14.66L51.41 22L49.94 22L49.94 14.66ZM60.45 18.95L57.37 18.95L57.37 17.80L60.45 17.80L60.45 18.95ZM64.48 18.19L64.48 18.19L64.48 17.39Q64.48 16.19 64.91 15.27Q65.33 14.35 66.13 13.85Q66.93 13.35 67.98 13.35L67.98 13.35Q69.39 13.35 70.26 14.12Q71.12 14.89 71.26 16.29L71.26 16.29L69.78 16.29Q69.68 15.37 69.25 14.96Q68.81 14.55 67.98 14.55L67.98 14.55Q67.02 14.55 66.50 15.26Q65.98 15.96 65.97 17.33L65.97 17.33L65.97 18.09Q65.97 19.47 66.46 20.20Q66.96 20.92 67.91 20.92L67.91 20.92Q68.79 20.92 69.22 20.53Q69.66 20.14 69.78 19.22L69.78 19.22L71.26 19.22Q71.13 20.59 70.25 21.35Q69.37 22.12 67.91 22.12L67.91 22.12Q66.89 22.12 66.12 21.63Q65.34 21.15 64.92 20.26Q64.50 19.37 64.48 18.19ZM75.30 18.00L75.30 18.00L75.30 17.52Q75.30 16.28 75.74 15.32Q76.19 14.37 76.99 13.86Q77.80 13.35 78.84 13.35Q79.88 13.35 80.69 13.85Q81.49 14.35 81.93 15.29Q82.37 16.23 82.38 17.48L82.38 17.48L82.38 17.96Q82.38 19.21 81.95 20.16Q81.51 21.10 80.71 21.61Q79.90 22.12 78.85 22.12L78.85 22.12Q77.81 22.12 77.00 21.61Q76.19 21.10 75.75 20.17Q75.31 19.23 75.30 18.00ZM76.78 17.46L76.78 17.96Q76.78 19.36 77.33 20.13Q77.88 20.90 78.85 20.90L78.85 20.90Q79.84 20.90 80.37 20.15Q80.90 19.40 80.90 17.96L80.90 17.96L80.90 17.51Q80.90 16.09 80.36 15.34Q79.82 14.58 78.84 14.58L78.84 14.58Q77.88 14.58 77.34 15.33Q76.80 16.09 76.78 17.46L76.78 17.46ZM88.33 22L86.84 22L86.84 13.47L88.33 13.47L92.14 19.54L92.14 13.47L93.61 13.47L93.61 22L92.13 22L88.33 15.95L88.33 22ZM99.83 22L98.35 22L98.35 13.47L99.83 13.47L103.65 19.54L103.65 13.47L105.12 13.47L105.12 22L103.64 22L99.83 15.95L99.83 22Z" fill="#FFFFFF"/><path class="svg__text" d="M133.17 22L130.44 13.60L132.89 13.60L134.58 18.96L136.36 13.60L138.54 13.60L140.23 19.01L142.00 13.60L144.27 13.60L141.54 22L139.00 22L137.39 16.89L135.71 22L133.17 22ZM155.52 22L148.78 22L148.78 13.60L155.37 13.60L155.37 15.44L151.13 15.44L151.13 16.85L154.87 16.85L154.87 18.63L151.13 18.63L151.13 20.17L155.52 20.17L155.52 22ZM164.87 22L160.33 22L160.33 13.60L164.63 13.60Q166.23 13.60 167.07 14.19Q167.91 14.79 167.91 15.79L167.91 15.79Q167.91 16.39 167.62 16.87Q167.32 17.34 166.78 17.62L166.78 17.62Q167.50 17.87 167.91 18.41Q168.32 18.94 168.32 19.70L168.32 19.70Q168.32 20.80 167.43 21.40Q166.54 22 164.87 22L164.87 22ZM162.68 18.58L162.68 20.28L164.67 20.28Q165.92 20.28 165.92 19.43L165.92 19.43Q165.92 18.58 164.67 18.58L164.67 18.58L162.68 18.58ZM162.68 15.31L162.68 16.94L164.31 16.94Q165.51 16.94 165.51 16.12L165.51 16.12Q165.51 15.31 164.31 15.31L164.31 15.31L162.68 15.31ZM172.45 21.24L172.45 21.24L173.23 19.49Q173.79 19.86 174.54 20.09Q175.28 20.32 176 20.32L176 20.32Q177.37 20.32 177.37 19.64L177.37 19.64Q177.37 19.28 176.98 19.11Q176.59 18.93 175.72 18.74L175.72 18.74Q174.78 18.53 174.14 18.30Q173.50 18.06 173.05 17.55Q172.60 17.03 172.60 16.16L172.60 16.16Q172.60 15.39 173.01 14.77Q173.43 14.15 174.27 13.79Q175.10 13.43 176.31 13.43L176.31 13.43Q177.14 13.43 177.94 13.62Q178.75 13.80 179.36 14.17L179.36 14.17L178.63 15.93Q177.43 15.28 176.30 15.28L176.30 15.28Q175.59 15.28 175.27 15.49Q174.95 15.70 174.95 16.04L174.95 16.04Q174.95 16.37 175.33 16.54Q175.71 16.71 176.56 16.89L176.56 16.89Q177.52 17.10 178.15 17.33Q178.78 17.56 179.25 18.07Q179.71 18.58 179.71 19.46L179.71 19.46Q179.71 20.21 179.29 20.83Q178.87 21.44 178.03 21.80Q177.19 22.17 175.99 22.17L175.99 22.17Q174.97 22.17 174.01 21.92Q173.05 21.67 172.45 21.24ZM186.66 22L184.29 22L184.29 13.60L186.66 13.60L186.66 22ZM193.63 15.48L191.05 15.48L191.05 13.60L198.57 13.60L198.57 15.48L196.00 15.48L196.00 22L193.63 22L193.63 15.48ZM209.69 22L202.94 22L202.94 13.60L209.53 13.60L209.53 15.44L205.30 15.44L205.30 16.85L209.03 16.85L209.03 18.63L205.30 18.63L205.30 20.17L209.69 20.17L209.69 22Z" fill="#FFFFFF" x="129.9"/></svg>